<svg width="144" height="33" viewBox="0 0 144 33" fill="none" xmlns="http://www.w3.org/2000/svg">
<path d="M118.751 25.5829C118.251 26.1733 117.54 26.5052 116.797 26.5052H103.86C103.117 26.5052 102.406 26.1733 101.906 25.5829C100.492 23.9108 99.6494 21.8066 99.6494 19.5207C99.6494 17.2351 100.492 15.1309 101.906 13.4588C102.406 12.8682 103.117 12.5363 103.86 12.5363H116.796C117.549 12.5363 118.264 12.8803 118.768 13.4795C120.172 15.1481 121.007 17.2443 121.007 19.5207C121.007 21.8066 120.165 23.9108 118.751 25.5829ZM110.328 7.01073C102.844 7.01073 96.7775 12.6118 96.7775 19.5207C96.7775 23.0806 98.3882 26.2931 100.973 28.5711C100.94 29.6573 100.587 30.7324 99.9691 31.5946C101.167 31.5432 102.34 31.0312 103.242 30.186C105.304 31.3558 107.731 32.0308 110.328 32.0308C117.812 32.0308 123.879 26.4297 123.879 19.5207C123.879 12.6118 117.812 7.01073 110.328 7.01073Z" fill="#0077CD"/>
<path d="M96.1322 19.5208C96.1322 21.2367 96.4789 22.9007 97.1637 24.4729C95.3342 23.8275 94.0028 22.5498 94.0028 19.5208C94.0028 16.6475 95.3342 15.214 97.1639 14.5686C96.4792 16.1416 96.1322 17.8063 96.1322 19.5208Z" fill="#0077CD"/>
<path d="M95.5834 10.8548V14.6052C95.1087 14.934 94.707 15.3305 94.3822 15.7922C94.3793 15.7964 94.3764 15.8002 94.3737 15.8044V10.8548C94.3737 10.4964 94.6445 10.2059 94.9785 10.2059C95.3126 10.2059 95.5834 10.4964 95.5834 10.8548Z" fill="#0077CD"/>
<path d="M124.525 19.5208C124.525 21.2367 124.178 22.9007 123.493 24.4729C125.323 23.8275 126.654 22.5498 126.654 19.5208C126.654 16.6475 125.323 15.214 123.493 14.5686C124.178 16.1416 124.525 17.8063 124.525 19.5208Z" fill="#0077CD"/>
<path d="M125.073 10.8548V14.6052C125.548 14.934 125.95 15.3305 126.275 15.7922C126.278 15.7964 126.28 15.8002 126.283 15.8044V10.8548C126.283 10.4964 126.012 10.2059 125.678 10.2059C125.344 10.2059 125.073 10.4964 125.073 10.8548Z" fill="#0077CD"/>
<path d="M107.449 19.1329C107.055 19.7831 106.487 19.1329 105.301 19.1329C104.114 19.1329 103.546 19.7831 103.152 19.1329C102.771 18.5033 103.823 16.9503 105.301 16.9503C106.778 16.9503 107.83 18.5033 107.449 19.1329Z" fill="#0077CD"/>
<path d="M110.328 22.0912C109.5 22.0912 108.954 21.3865 108.931 21.3566C108.807 21.1941 108.829 20.9546 108.981 20.8218C109.132 20.6888 109.356 20.7129 109.479 20.8754C109.482 20.8783 109.841 21.331 110.328 21.331C110.816 21.331 111.175 20.8783 111.178 20.8737C111.302 20.7112 111.525 20.688 111.676 20.8208C111.828 20.9538 111.85 21.1941 111.726 21.3566C111.703 21.3865 111.157 22.0912 110.328 22.0912Z" fill="#0077CD"/>
<path d="M115.328 17.6725C116.515 17.6725 117.299 18.3885 117.332 18.4188C117.51 18.5839 117.478 18.8273 117.26 18.9623C117.043 19.0974 116.723 19.0729 116.545 18.9078C116.542 18.9048 116.027 18.4449 115.328 18.4449C114.628 18.4449 114.113 18.9048 114.108 18.9095C113.93 19.0746 113.611 19.0982 113.394 18.9632C113.176 18.8281 113.145 18.5839 113.323 18.4188C113.356 18.3885 114.139 17.6725 115.328 17.6725Z" fill="#0077CD"/>
<path d="M144 21.6008V29.5902H140.447C133.906 29.5902 130.635 26.3353 130.635 19.8254V13.5692H127.674V5.74895H130.635V0H140.024V5.74895H143.915V13.5692H140.024V19.9945C140.024 20.5581 140.151 20.9668 140.405 21.2204C140.687 21.474 141.138 21.6008 141.758 21.6008H144Z" fill="#0077CD"/>
<path d="M77.1898 10.3098C77.7597 9.25032 78.5737 8.42173 79.632 7.82406C80.7174 7.19922 82.0063 6.8868 83.4987 6.8868C85.2897 6.8868 86.9042 7.36222 88.3423 8.31306C89.7805 9.23674 90.9066 10.5951 91.7207 12.3881C92.5618 14.1539 92.9824 16.2458 92.9824 18.6636C92.9824 21.0815 92.5618 23.1869 91.7207 24.9799C90.9066 26.7458 89.7805 28.1041 88.3423 29.055C86.9042 29.9786 85.2897 30.4405 83.4987 30.4405C82.0063 30.4405 80.7174 30.1416 79.632 29.544C78.5737 28.9191 77.7597 28.077 77.1898 27.0175V30.1552H68.1539V0H77.1898V10.3098ZM83.8244 18.6636C83.8244 17.4411 83.5123 16.4903 82.8882 15.8111C82.2641 15.1319 81.4636 14.7924 80.4868 14.7924C79.5099 14.7924 78.7094 15.1319 78.0853 15.8111C77.4612 16.4903 77.1491 17.4411 77.1491 18.6636C77.1491 19.8862 77.4612 20.837 78.0853 21.5162C78.7094 22.1953 79.5099 22.5349 80.4868 22.5349C81.4636 22.5349 82.2641 22.1953 82.8882 21.5162C83.5123 20.837 83.8244 19.8862 83.8244 18.6636Z" fill="#0077CD"/>
<path d="M42.8448 18.6478C42.8448 16.2692 43.3314 14.2015 44.3044 12.4446C45.3045 10.6607 46.683 9.29571 48.4399 8.34969C50.2238 7.40367 52.251 6.93066 54.5214 6.93066C57.4946 6.93066 59.9948 7.76857 62.022 9.44437C64.0762 11.1202 65.3736 13.4447 65.9142 16.4179H56.3864C56.035 15.2286 55.3458 14.634 54.3187 14.634C53.5889 14.634 53.0078 14.9718 52.5753 15.6476C52.1699 16.3233 51.9672 17.3234 51.9672 18.6478C51.9672 19.9722 52.1699 20.9723 52.5753 21.648C53.0078 22.3237 53.5889 22.6616 54.3187 22.6616C55.3458 22.6616 56.035 22.067 56.3864 20.8777H65.9142C65.3736 23.8509 64.0762 26.1754 62.022 27.8512C59.9948 29.527 57.4946 30.3649 54.5214 30.3649C52.251 30.3649 50.2238 29.8919 48.4399 28.9459C46.683 27.9999 45.3045 26.6484 44.3044 24.8915C43.3314 23.1076 42.8448 21.0263 42.8448 18.6478Z" fill="#0077CD"/>
<path d="M41.2145 18.4451C41.2145 19.0667 41.174 19.6614 41.0929 20.229H26.6188C26.754 22.2021 27.5783 23.1887 29.092 23.1887C30.065 23.1887 30.7678 22.7427 31.2002 21.8507H40.728C40.4037 23.4725 39.7144 24.9321 38.6603 26.2294C37.6332 27.4998 36.3223 28.5134 34.7275 29.2702C33.1599 30 31.43 30.3649 29.538 30.3649C27.2675 30.3649 25.2403 29.8919 23.4564 28.9459C21.6995 27.9999 20.321 26.6484 19.3209 24.8915C18.3479 23.1076 17.8614 21.0263 17.8614 18.6478C17.8614 16.2692 18.3479 14.2015 19.3209 12.4446C20.321 10.6607 21.6995 9.29571 23.4564 8.34969C25.2403 7.40367 27.2675 6.93066 29.538 6.93066C31.8084 6.93066 33.8221 7.40367 35.579 8.34969C37.3629 9.26868 38.7414 10.5931 39.7144 12.323C40.7145 14.0528 41.2145 16.0935 41.2145 18.4451ZM32.0922 16.2963C32.0922 15.5394 31.8489 14.9718 31.3624 14.5934C30.8759 14.188 30.2677 13.9853 29.538 13.9853C27.9432 13.9853 27.0107 14.7556 26.7404 16.2963H32.0922Z" fill="#0077CD"/>
<path d="M15.6499 22.4184V30.0811H12.2442C5.97343 30.0811 2.83806 26.9593 2.83806 20.7155V14.7151H0V7.2145H2.83806V1.70056H11.8388V7.2145H15.5688V14.7151H11.8388V20.8777C11.8388 21.4183 11.9604 21.8102 12.2036 22.0535C12.4739 22.2967 12.9064 22.4184 13.501 22.4184H15.6499Z" fill="#0077CD"/>
</svg>
