<svg width="218" height="167" viewBox="0 0 218 167" fill="none" xmlns="http://www.w3.org/2000/svg">
<path d="M164.787 123.665C161.461 127.596 156.723 129.806 151.775 129.806H65.6373C60.6896 129.806 55.9515 127.596 52.6259 123.665C43.2097 112.531 37.5982 98.5202 37.5982 83.2994C37.5982 68.08 43.2086 54.0689 52.6248 42.9354C55.9504 39.0026 60.6886 36.7925 65.6373 36.7925H151.774C156.782 36.7925 161.548 39.083 164.903 43.0732C174.25 54.1838 179.814 68.1412 179.814 83.2994C179.814 98.5202 174.203 112.531 164.787 123.665ZM108.706 8.18915e-05C58.8732 8.18915e-05 18.4758 37.2952 18.4758 83.2994C18.4758 107.003 29.2004 128.394 46.4139 143.562C46.1937 150.795 43.8412 157.954 39.7272 163.694C47.7029 163.352 55.5153 159.943 61.5232 154.315C75.2511 162.105 91.411 166.599 108.706 166.599C158.539 166.599 198.937 129.304 198.937 83.2994C198.937 37.2952 158.539 8.18915e-05 108.706 8.18915e-05Z" fill="#0077CD"/>
<path d="M14.1791 83.2994C14.1791 94.7251 16.4874 105.805 21.0473 116.274C8.86514 111.976 0 103.469 0 83.2994C0 64.1675 8.86514 54.6227 21.0484 50.3249C16.4896 60.7988 14.1791 71.8838 14.1791 83.2994Z" fill="#0077CD"/>
<path d="M10.5249 25.5963V50.5687C7.36358 52.7584 4.6889 55.3985 2.52658 58.4725C2.50731 58.5006 2.48792 58.5261 2.46973 58.5542V25.5963C2.46973 23.2101 4.27323 21.2756 6.4968 21.2756C8.72144 21.2756 10.5249 23.2101 10.5249 25.5963Z" fill="#0077CD"/>
<path d="M203.233 83.2994C203.233 94.7251 200.924 105.805 196.365 116.274C208.547 111.976 217.412 103.469 217.412 83.2994C217.412 64.1675 208.547 54.6227 196.365 50.3249C200.923 60.7988 203.233 71.8838 203.233 83.2994Z" fill="#0077CD"/>
<path d="M206.887 25.5963V50.5687C210.049 52.7584 212.723 55.3985 214.886 58.4725C214.905 58.5006 214.924 58.5261 214.943 58.5542V25.5963C214.943 23.2101 213.139 21.2756 210.916 21.2756C208.69 21.2756 206.887 23.2101 206.887 25.5963Z" fill="#0077CD"/>
<path d="M89.5316 80.7166C86.9108 85.0462 83.1279 80.7166 75.2267 80.7166C67.3267 80.7166 63.5438 85.0462 60.9231 80.7166C58.3859 76.5248 65.3861 66.1836 75.2267 66.1836C85.0674 66.1836 92.0676 76.5248 89.5316 80.7166Z" fill="#0077CD"/>
<path d="M108.705 100.415C103.191 100.415 99.5518 95.723 99.3996 95.5239C98.5754 94.4418 98.724 92.8468 99.7326 91.9625C100.742 91.0769 102.228 91.2377 103.053 92.3198C103.067 92.3389 105.458 95.3529 108.705 95.3529C111.952 95.3529 114.342 92.3389 114.366 92.3083C115.19 91.2262 116.672 91.0718 117.682 91.9561C118.69 92.8417 118.836 94.4418 118.01 95.5239C117.858 95.723 114.22 100.415 108.705 100.415Z" fill="#0077CD"/>
<path d="M141.993 70.9927C149.902 70.9927 155.123 75.76 155.341 75.9623C156.523 77.0617 156.31 78.6824 154.863 79.5809C153.415 80.4807 151.284 80.3173 150.1 79.2178C150.08 79.1984 146.651 76.136 141.993 76.136C137.336 76.136 133.907 79.1984 133.872 79.2295C132.69 80.329 130.565 80.4858 129.116 79.5874C127.669 78.6876 127.461 77.0617 128.645 75.9623C128.864 75.76 134.082 70.9927 141.993 70.9927Z" fill="#0077CD"/>
</svg>
